<?xml version="1.0" standalone="no"?>
<!DOCTYPE svg PUBLIC "-//W3C//DTD SVG 20010904//EN"
 "http://www.w3.org/TR/2001/REC-SVG-20010904/DTD/svg10.dtd">
<svg version="1.0" xmlns="http://www.w3.org/2000/svg"
 width="1024.000000pt" height="1024.000000pt" viewBox="0 0 1024.000000 1024.000000"
 preserveAspectRatio="xMidYMid meet">
<metadata>
Created by potrace 1.14, written by Peter Selinger 2001-2017
</metadata>
<g transform="translate(0.000000,1024.000000) scale(0.100000,-0.100000)"
fill="#000000" stroke="none">
<path d="M6746 8394 c-128 -20 -262 -58 -421 -121 -198 -78 -289 -126 -863
-451 -574 -326 -586 -331 -817 -356 -382 -42 -689 -136 -988 -304 -607 -340
-981 -941 -1079 -1732 -17 -137 -17 -625 0 -790 68 -649 261 -1128 594 -1475
337 -351 760 -537 1378 -607 214 -24 1054 -12 1271 18 l46 6 7 -58 c8 -68 34
-131 67 -160 13 -12 58 -36 101 -54 94 -39 164 -104 211 -200 30 -60 42 -97
77 -237 6 -24 17 -43 24 -43 38 0 95 115 123 248 12 59 14 106 9 202 -3 69 -9
184 -12 257 -11 218 9 265 192 454 72 75 160 176 194 225 125 175 211 376 263
608 21 98 22 120 22 651 0 548 0 550 -23 625 -77 245 -273 429 -521 487 -67
16 -128 18 -496 18 -474 0 -480 -1 -635 -77 -174 -85 -309 -263 -344 -453 -9
-47 -17 -180 -21 -325 -8 -339 -25 -493 -62 -561 -44 -83 -125 -164 -201 -201
-64 -32 -71 -33 -187 -33 -114 0 -123 2 -188 32 -151 72 -245 228 -296 497
-39 198 -51 426 -51 924 0 640 21 875 95 1099 60 179 137 284 253 342 229 114
503 24 698 -230 25 -33 79 -116 121 -186 110 -186 177 -269 245 -304 79 -40
110 -22 196 119 102 164 128 261 143 530 5 96 16 206 25 245 54 237 178 447
399 675 175 182 307 284 651 505 167 107 201 170 106 197 -50 14 -198 11 -306
-6z"/>
<path d="M6283 6103 c-33 -26 -46 -78 -28 -119 21 -51 57 -64 180 -64 550 0
995 -431 995 -963 0 -120 6 -151 38 -182 27 -27 86 -34 124 -14 47 25 59 127
38 314 -47 407 -293 752 -666 932 -170 82 -271 105 -484 110 -157 3 -177 2
-197 -14z"/>
<path d="M7439 4471 c-39 -39 -45 -58 -40 -126 7 -92 125 -146 209 -95 66 40
89 116 56 186 -23 48 -70 74 -134 74 -48 0 -56 -4 -91 -39z"/>
</g>
</svg>
