<?xml version="1.0" encoding="UTF-8" standalone="no"?><!DOCTYPE svg PUBLIC "-//W3C//DTD SVG 1.1//EN" "http://www.w3.org/Graphics/SVG/1.1/DTD/svg11.dtd"><svg width="1024px" height="1024px" version="1.1" xmlns="http://www.w3.org/2000/svg" xmlns:xlink="http://www.w3.org/1999/xlink" xml:space="preserve" xmlns:serif="http://www.serif.com/" style="fill-rule:evenodd;clip-rule:evenodd;stroke-linejoin:round;stroke-miterlimit:2;"><rect id="Green" x="0" y="0" width="1024" height="1024" style="fill:none;"/><g id="Layer-1" serif:id="Layer 1"><clipPath id="_clip1"><path d="M739.262,586.851c0,7.96 6.45,14.406 14.392,14.406c7.967,0 14.406,-6.446 14.406,-14.406c0,-7.966 -6.439,-14.409 -14.406,-14.409c-7.942,-0 -14.392,6.443 -14.392,14.409Z"/></clipPath><g clip-path="url(#_clip1)"><rect x="739.262" y="572.442" width="28.798" height="28.816" style="fill:#84cc16;fill-rule:nonzero;"/></g><clipPath id="_clip2"><path d="M634.453,411.414c-5.652,-0 -10.235,4.575 -10.235,10.235c-0,5.645 4.583,10.231 10.235,10.231l11.011,0c54.022,0 97.973,43.934 97.973,97.955l0,9.631c0,5.652 4.576,10.238 10.231,10.238c5.645,0 10.235,-4.586 10.235,-10.238l0,-9.631c0,-65.304 -53.124,-118.421 -118.439,-118.421l-11.011,-0Z"/></clipPath><g clip-path="url(#_clip2)"><path d="M763.903,549.704l-139.685,0l-0,-138.29l139.685,-0l0,138.29Z" style="fill:#84cc16;fill-rule:nonzero;"/></g><clipPath id="_clip3"><path d="M690.639,182.824c-34.518,1.231 -73.229,18.041 -107.918,38.353c-0.04,0.011 -0.079,0.011 -0.104,0.043c-19.551,10.8 -87.023,49.335 -87.023,49.335c-10.94,3.939 -17.801,5.492 -17.801,5.492l-0.022,0.046c-134.043,8.686 -221.771,97.573 -221.771,240.639c-0,185.983 98.063,253.195 235.501,253.195c7.606,-0 15.093,-0.233 22.455,-0.652c4.132,0.183 8.293,0.279 12.457,0.279c16.026,0 31.531,-0.69 46.556,-2.031c4.84,-0.43 9.605,-1.084 14.302,-1.95c-1.317,5.087 1.824,16.517 4.361,19.901c3.509,4.686 9.101,6.06 13.519,7.641c9.193,3.327 16.162,11.172 20.519,19.94c4.329,8.754 6.375,18.438 8.361,27.997c2.844,0.93 5.359,-2.039 6.736,-4.687c5.391,-10.335 8.317,-21.933 8.457,-33.605c0.257,-20.731 -7.774,-43.183 2.536,-61.173c2.393,-4.164 5.617,-7.717 8.986,-11.144c33.402,-28.733 54.348,-71.229 54.348,-118.292l-0,-78.173c-0,-38.929 -31.556,-70.488 -70.485,-70.488l-67.38,-0c-23.889,-0 -44.785,12.628 -56.518,31.531l-0,0.014c-2.784,4.793 -4.715,8.772 -6.121,12.707c-0.075,0.229 -0.168,0.458 -0.254,0.686c-2.09,6.121 -2.927,12.31 -3.628,21.203c0,0.126 -0.025,0.262 -0.025,0.398l-0.186,33.913c-0.951,12.896 -1.642,24.977 -2.815,32.236c-0.086,0.593 -0.222,1.162 -0.344,1.731c-0.322,1.549 -0.647,2.898 -1.026,3.788c-8.64,17.834 -21.547,27.628 -40.26,27.628c-41.805,0 -53.786,-39.748 -54.408,-124.524c-0.029,-2.397 -0.029,-36.553 -0.029,-39.022c0,-83.084 10.5,-131.79 57.302,-131.79c0.677,0 1.27,0.118 1.929,0.14c0.114,-0.047 0.211,-0.097 0.322,-0.154c0.525,0.079 1.023,0.193 1.545,0.279c0.909,0.068 1.696,0.311 2.569,0.418c39.969,8.121 49.932,44.446 64.718,63.996c15.618,20.67 24.802,15.619 29.398,5.978c4.587,-9.645 17.909,-17.451 17.909,-65.216c1.363,-75.496 97.758,-129.371 98.295,-130.065c0.003,-0.008 0.003,-0.011 0.003,-0.015c1.088,-0.59 49.819,-26.576 8.293,-26.576c-1.03,0 -2.114,0.014 -3.259,0.05Z"/></clipPath><g clip-path="url(#_clip3)"><path d="M735.424,841.982l-479.424,-0l-0,-659.208l479.424,-0l-0,659.208Z" style="fill:#84cc16;fill-rule:nonzero;"/></g></g></svg>