<?xml version="1.0" encoding="UTF-8" standalone="no"?>
<!DOCTYPE svg PUBLIC "-//W3C//DTD SVG 1.1//EN" "http://www.w3.org/Graphics/SVG/1.1/DTD/svg11.dtd">
<svg width="1024px" height="1024px" version="1.1" xmlns="http://www.w3.org/2000/svg" xmlns:xlink="http://www.w3.org/1999/xlink" xml:space="preserve" xmlns:serif="http://www.serif.com/" style="fill-rule:evenodd;clip-rule:evenodd;stroke-linecap:round;stroke-linejoin:round;stroke-miterlimit:1.5;">
    <g id="_18mod" serif:id="18mod" transform="matrix(0.446163,0,0,0.479547,1170.54,0)">
        <rect x="-2623.57" y="0" width="2295.12" height="2135.35" style="fill:none;"/>
        <clipPath id="_clip1">
            <rect x="-2623.57" y="0" width="2295.12" height="2135.35"/>
        </clipPath>
        <g clip-path="url(#_clip1)">
            <g transform="matrix(2.3068,0,0,2.19643,-2690.61,-113.792)">
                <rect x="29.063" y="51.808" width="994.94" height="972.192" style="fill:url(#_Linear2);"/>
            </g>
            <g transform="matrix(2.3068,0,0,2.19643,-2690.61,-113.792)">
                <rect x="29.063" y="51.808" width="994.94" height="972.192" style="fill:rgb(50,221,122);"/>
            </g>
            <g id="Naomi-2" serif:id="Naomi 2" transform="matrix(1.12063,0,0,1.04262,-2602.49,-73.7759)">
                <g transform="matrix(1,0,0,1,-39.7631,22.4948)">
                    <path d="M630.606,759.54C518.221,947.224 375.945,1040.13 183.01,973.115C273.785,738.516 425.977,675.913 630.606,759.54Z" style="fill:white;"/>
                </g>
                <g transform="matrix(2.00006,0,0,2.00006,-18.8149,70.7602)">
                    <path d="M699.784,384.705C738.369,424.446 777.768,449.992 818.22,458.883C858.672,467.775 900.176,460.011 942.971,433.132C871.873,331.155 790.371,318.793 699.784,384.705Z"/>
                </g>
                <g transform="matrix(1.13565,0,0,1.13565,-49.9573,-48.8706)">
                    <path d="M570.477,362.703C567.313,363.908 563.878,366.703 560.902,371.512C556.517,378.598 552.336,391.306 548.998,407.358C538.451,458.074 535.274,543.386 548.565,579.158C571.627,641.23 645.902,711.546 645.902,711.546C648.771,714.252 653.124,714.629 656.416,712.456L799.442,618.055C801.868,616.454 803.307,613.724 803.259,610.818C803.21,607.911 801.679,605.232 799.201,603.713C799.201,603.713 699.309,542.925 673.611,503.286C644.472,458.339 620.424,404.988 601.592,379.693C595.803,371.917 590.231,366.557 585.262,363.963C580.058,361.245 575.107,360.94 570.477,362.703Z"/>
                </g>
                <g transform="matrix(-1.13565,0,0,1.13565,2040.63,-48.8706)">
                    <path d="M570.477,362.703C575.107,360.94 580.058,361.245 585.262,363.963C590.231,366.557 595.803,371.917 601.592,379.693C620.424,404.988 644.472,458.339 673.611,503.286C699.309,542.925 799.201,603.713 799.201,603.713C801.679,605.232 803.21,607.911 803.259,610.818C803.307,613.724 801.868,616.454 799.442,618.055L656.416,712.456C653.124,714.629 648.771,714.252 645.902,711.546C645.902,711.546 571.627,641.23 548.565,579.158C535.274,543.386 538.451,458.074 548.998,407.358C552.336,391.306 556.517,378.598 560.902,371.512C563.878,366.703 567.313,363.908 570.477,362.703Z"/>
                </g>
                <g transform="matrix(1,0,0,1,-156.86,-539.679)">
                    <path d="M1154.82,1046.22C1441.13,1046.22 1671.3,1290.63 1673.58,1472.49C1677.74,1805.23 1663.14,2019.58 1573.06,2158.49C1477.56,2305.78 1295.03,2367.48 1154.82,2367.48C1014.61,2367.48 798.202,2307.37 731.814,2158.49C668.804,2017.19 635.046,1750.99 629.823,1472.49C626.412,1290.64 868.515,1046.22 1154.82,1046.22Z" style="fill:white;"/>
                </g>
                <g transform="matrix(1,0,0,1,-156.86,-539.679)">
                    <path d="M1154.82,1046.58C980.444,1046.58 824.02,1132.64 727.821,1241.38C663.045,1314.61 625.648,1398.14 627.573,1472.71C630.002,1566.85 659.54,1624.6 701.936,1655.74C765.528,1702.44 859.64,1689.67 940.739,1646.42C994.076,1617.97 1041.67,1576.56 1070.93,1531.38C1090.96,1500.46 1102.42,1467.75 1101.81,1436.1C1100.73,1380.42 1134.39,1323.24 1171.62,1270.77C1210.37,1216.17 1253.19,1166.58 1268.93,1129.06C1277.57,1108.47 1278.25,1090.95 1269.08,1077.35C1263.62,1069.25 1254.48,1062.29 1240.48,1057.16C1221.99,1050.39 1194.26,1046.58 1154.82,1046.58Z"/>
                </g>
                <g transform="matrix(0.873699,0,0,0.974243,-13.8297,324.669)">
                    <ellipse cx="1154.82" cy="1213.33" rx="518.753" ry="329.54" style="fill:rgb(255,221,245);"/>
                </g>
                <path d="M635.638,1530.63C752.315,1814.83 1258.67,1809.89 1366.72,1516.75" style="fill:none;stroke:black;stroke-width:36px;"/>
                <path d="M606.941,923.233C678.91,842.856 755.962,818.785 833.686,900.934" style="fill:none;stroke:white;stroke-width:36px;"/>
                <g transform="matrix(-1,0,0,1,1942.69,0)">
                    <path d="M606.941,923.233C678.91,842.856 755.962,818.785 833.686,900.934" style="fill:none;stroke:black;stroke-width:36px;"/>
                </g>
                <g transform="matrix(1.31,0,0,1.31,-237.688,-352.332)">
                    <ellipse cx="828.223" cy="1321.83" rx="33.589" ry="31.861"/>
                </g>
                <g transform="matrix(1.31,0,0,1.31,58.0193,-352.332)">
                    <ellipse cx="828.223" cy="1321.83" rx="33.589" ry="31.861"/>
                </g>
            </g>
        </g>
    </g>
    <defs>
        <linearGradient id="_Linear2" x1="0" y1="0" x2="1" y2="0" gradientUnits="userSpaceOnUse" gradientTransform="matrix(6.09225e-14,-972.192,994.94,5.95296e-14,526.532,1024)"><stop offset="0" style="stop-color:rgb(50,221,122);stop-opacity:1"/><stop offset="0.62" style="stop-color:rgb(66,227,134);stop-opacity:1"/><stop offset="0.82" style="stop-color:rgb(106,240,163);stop-opacity:1"/><stop offset="1" style="stop-color:rgb(149,255,194);stop-opacity:1"/></linearGradient>
    </defs>
</svg>
