<?xml version="1.0" encoding="UTF-8" standalone="no"?><!DOCTYPE svg PUBLIC "-//W3C//DTD SVG 1.1//EN" "http://www.w3.org/Graphics/SVG/1.1/DTD/svg11.dtd"><svg width="100%" height="100%" viewBox="0 0 4267 4267" version="1.1" xmlns="http://www.w3.org/2000/svg" xmlns:xlink="http://www.w3.org/1999/xlink" xml:space="preserve" xmlns:serif="http://www.serif.com/" style="fill-rule:evenodd;clip-rule:evenodd;stroke-linecap:round;stroke-linejoin:round;stroke-miterlimit:1.5;"><rect id="AppIcon" x="0" y="0" width="4266.67" height="4266.67" style="fill:none;"/><rect x="0" y="0" width="4266.67" height="4266.67" style="fill:#fff9ba;"/><rect x="0" y="0" width="4266.67" height="4266.67" style="fill:#ddb332;"/><rect x="0" y="0" width="4266.67" height="4266.67" style="fill:#d871b7;"/><rect x="0" y="0" width="4266.67" height="4266.67" style="fill:#a771d8;"/><rect x="0" y="0" width="4266.67" height="4266.67" style="fill:#7e5cb3;"/><rect x="0" y="0" width="4266.67" height="4266.67" style="fill:#674c91;"/><g id="Crush-Head" serif:id="Crush Head"><path d="M3353.68,2667.71c2.707,38.036 -259.456,218.759 -367.19,245.388c-131.367,32.472 -319.545,0.776 -319.545,0.776l55.188,-308.678c-0,-0 201.513,80.674 298.839,75.213c153.479,-8.611 330.002,-50.735 332.708,-12.699Z" style="fill:#cc581f;"/><path d="M1055.1,2613.12c-13.829,35.536 183.194,285.679 278.242,342.966c115.897,69.854 305.035,95.201 305.035,95.201l38.526,-311.197c0,0 -216.355,17.5 -307.717,-16.487c-144.075,-53.596 -300.257,-146.02 -314.086,-110.483Z" style="fill:#cc581f;"/><path d="M1042.24,1043.85c28.723,-25.081 229.264,64.782 315.435,134.712c105.075,85.271 189.124,334.979 189.124,334.979l-279.597,141.964c0,-0 -46.783,-197.065 -85.997,-286.309c-57.581,-131.044 -167.689,-300.266 -138.965,-325.346Z" style="fill:#cc581f;"/><path d="M1329.08,759.673c45.842,-15.679 317.573,233.635 371.16,351.734c65.341,144.006 63.588,375.974 63.588,375.974l-387.158,36.401c-0,-0 58.853,-263.756 33.116,-376.553c-40.586,-177.877 -126.549,-371.878 -80.706,-387.556Z" style="fill:#cc581f;"/><path d="M723.177,1575.64c10.453,-37.339 274.836,-90.415 367.744,-66.994c113.289,28.558 249.732,143.728 249.732,143.728l-145.066,268.144c-0,-0 -130.673,-167.705 -208.461,-206.52c-122.67,-61.211 -274.402,-101.018 -263.949,-138.358Z" style="fill:#cc581f;"/><path d="M3504.59,1464.68c8.527,37.167 -172.6,48.47 -321.895,85.089c-94.672,23.222 -263.811,159.266 -263.811,159.266l-142.99,-279.073c0,-0 170.699,-85.307 305.821,-92.646c110.813,-6.018 414.347,90.198 422.875,127.364Z" style="fill:#cc581f;"/><path d="M3543.71,1691.83c8.528,37.166 -172.599,48.47 -321.894,85.089c-94.673,23.222 -263.811,159.266 -263.811,159.266l-142.99,-279.073c-0,-0 170.699,-85.307 305.821,-92.646c110.813,-6.018 414.347,90.198 422.874,127.364Z" style="fill:#cc581f;"/><path d="M3370.93,1125.4c21.334,31.606 -143.585,107.345 -269.694,195.247c-79.969,55.741 -188.804,243.546 -188.804,243.546l-233.855,-208.902c0,0 128.554,-141.03 251.978,-196.512c101.22,-45.5 419.041,-64.985 440.375,-33.379Z" style="fill:#cc581f;"/><path d="M3176.61,845.451c-28.615,-41.091 -406.359,0.766 -522.773,66.509c-141.951,80.164 -281.562,274.688 -281.562,274.688l300.046,266.958c-0,0 111.424,-255.929 201.438,-334.269c141.949,-123.539 331.465,-232.795 302.851,-273.886Z" style="fill:#cc581f;"/><path d="M2740.02,502.057c48.921,40.603 -107.457,234.155 -206.255,429.697c-62.65,123.999 -70.339,470.231 -70.339,470.231l-440.938,-227c0,-0 65.077,-280.86 182.942,-423.809c96.66,-117.232 485.668,-289.722 534.59,-249.119Z" style="fill:#cc581f;"/><path d="M1668.15,575.668c42.835,-23.85 186.531,210.662 253.186,316.496c81.278,129.051 218.984,324.767 218.984,324.767l-437.803,107.319c-0,0 -7.531,-172.078 -34.367,-284.697c-42.428,-178.05 -42.836,-440.035 -0,-463.885Z" style="fill:#cc581f;"/><path d="M3250.53,1838.17c63.722,-0 123.809,28.632 171.581,81.174c57.841,63.615 97.856,165.445 97.856,281.173c0,115.727 -40.015,217.557 -97.856,281.172c-47.772,52.542 -107.859,81.175 -171.581,81.175c-63.722,-0 -123.809,-28.633 -171.581,-81.175c-57.841,-63.615 -97.857,-165.445 -97.857,-281.172c0,-115.728 40.016,-217.558 97.857,-281.173c47.772,-52.542 107.859,-81.174 171.581,-81.174Z" style="fill:#cc581f;"/><ellipse cx="3250.53" cy="2200.52" rx="185.819" ry="278.728" style="fill:#ffcdb7;"/><path d="M1012.47,1838.17c63.722,-0 123.809,28.632 171.581,81.174c57.841,63.615 97.857,165.445 97.857,281.173c-0,115.727 -40.016,217.557 -97.857,281.172c-47.772,52.542 -107.859,81.175 -171.581,81.175c-63.722,-0 -123.809,-28.633 -171.581,-81.175c-57.841,-63.615 -97.856,-165.445 -97.856,-281.172c-0,-115.728 40.015,-217.558 97.856,-281.173c47.772,-52.542 107.859,-81.174 171.581,-81.174Z" style="fill:#cc581f;"/><ellipse cx="1012.47" cy="2200.52" rx="185.819" ry="278.728" style="fill:#ffcdb7;"/><path d="M2145.94,1141.37c569.749,-0 1027.78,486.366 1032.31,848.273c8.292,662.15 -20.762,1088.7 -200.015,1365.13c-190.063,293.099 -553.285,415.888 -832.298,415.888c-279.014,-0 -709.671,-119.626 -841.784,-415.888c-125.389,-281.186 -192.566,-810.924 -202.961,-1365.13c-6.787,-361.872 474.996,-848.273 1044.75,-848.273Z" style="fill:#cd5820;"/><path d="M2142.91,1869.32c181.003,-206.302 543.01,-206.302 724.014,-41.05c181.01,165.253 181.01,495.757 0,826.262c-126.703,247.879 -452.508,495.758 -724.014,661.01c-271.505,-165.252 -597.31,-413.131 -724.013,-661.01c-181.004,-330.505 -181.004,-661.009 -0,-826.262c181.004,-165.252 543.01,-165.252 724.013,41.05Z" style="fill:#b38f85;"/><g><ellipse cx="2140.32" cy="3124.59" rx="593.314" ry="565.034" style="fill:#ffcdb7;"/><path d="M1684.93,3215.66c145.357,250.567 776.173,246.211 910.779,-12.239" style="fill:none;stroke:#000;stroke-width:83.62px;"/><path d="M2215.59,2853.59c22.037,-60.54 70.034,-98.732 107.116,-85.234c37.082,13.498 49.298,73.607 27.262,134.147c-22.037,60.539 -70.034,98.731 -107.116,85.233c-37.082,-13.498 -49.298,-73.607 -27.262,-134.146Z"/><path d="M2075.89,2853.55c-22.071,-60.527 -70.09,-98.691 -107.164,-85.172c-37.075,13.519 -49.256,73.635 -27.185,134.162c22.071,60.527 70.09,98.691 107.165,85.172c37.074,-13.519 49.255,-73.635 27.184,-134.162Z"/></g><g><path d="M1525.13,2272.42c152.572,-170.399 315.922,-221.428 480.695,-47.275" style="fill:none;stroke:#ffc9b1;stroke-width:222.98px;"/><path d="M1525.13,2272.42c152.572,-170.399 315.922,-221.428 480.695,-47.275" style="fill:none;stroke:#000;stroke-width:83.62px;"/><path d="M2754.62,2272.42c-152.572,-170.399 -315.921,-221.428 -480.695,-47.275" style="fill:none;stroke:#ffc9b1;stroke-width:222.98px;"/><path d="M2754.62,2272.42c-152.572,-170.399 -315.921,-221.428 -480.695,-47.275" style="fill:none;stroke:#000;stroke-width:83.62px;"/></g></g></svg>