<?xml version="1.0" encoding="UTF-8" standalone="no"?>
<!DOCTYPE svg PUBLIC "-//W3C//DTD SVG 1.1//EN" "http://www.w3.org/Graphics/SVG/1.1/DTD/svg11.dtd">
<svg width="1024px" height="1024px" version="1.1" xmlns="http://www.w3.org/2000/svg" xmlns:xlink="http://www.w3.org/1999/xlink" xml:space="preserve" xmlns:serif="http://www.serif.com/" style="fill-rule:evenodd;clip-rule:evenodd;stroke-linejoin:round;stroke-miterlimit:2;">
    <g transform="matrix(1,0,0,1,-4000,-6000)">
        <g id="Logo-disc" serif:id="Logo disc">
        </g>
        <g id="Logo-square" serif:id="Logo square">
        </g>
        <g transform="matrix(0.0743179,0,0,0.111279,1978.65,4279.7)">
            <g id="Logo-solo" serif:id="Logo solo">
                <rect id="teambakery-icon-orange" serif:id="teambakery icon orange" x="27198.7" y="15459.3" width="13778.6" height="9202.08" style="fill:none;"/>
                <clipPath id="_clip1">
                    <rect id="teambakery-icon-orange1" serif:id="teambakery icon orange" x="27198.7" y="15459.3" width="13778.6" height="9202.08"/>
                </clipPath>
                <g clip-path="url(#_clip1)">
                    <g>
                        <g transform="matrix(1.13925,0,0,0.760849,-5095.02,-7006.68)">
                            <rect x="28346.5" y="29527.6" width="12094.5" height="12094.5" style="fill:rgb(255,243,224);"/>
                        </g>
                        <g transform="matrix(2.39413,0,0,2.2611,28104.7,16657)">
                            <g transform="matrix(0.495151,1.94368e-17,0,0.350143,-13255.7,-369.828)">
                                <path d="M34920.7,5864.99C34957.7,5874.34 34993.8,5888.19 35028.2,5906.75C35319.2,6063.44 35390.2,6497.52 35186.7,6875.5C34983.2,7253.48 34581.7,7433.15 34290.7,7276.46C34229.4,7243.44 34177.8,7198.09 34136.6,7143.54C34172.8,7114.84 34208.4,7084.51 34243.2,7052.61C34268.2,7093.53 34306.5,7130.4 34355.2,7156.65C34476.2,7221.77 34616.1,7197.1 34667.5,7101.6C34719,7006.09 34569.4,7048.73 34448.4,6983.61C34418.4,6967.44 34392.9,6946.15 34370.9,6924.73C34583,6692.69 34756.9,6398.12 34866.4,6059.05C34887.3,5994.35 34905.4,5929.6 34920.7,5864.99Z" style="fill:rgb(255,138,77);"/>
                            </g>
                            <g transform="matrix(0.495151,0,0,0.350143,-13255.7,-369.828)">
                                <path d="M33530.2,4272.41C33662.4,4256.69 33795.5,4267.9 33924.5,4309.55C34533.8,4506.36 34821,5308.69 34565.3,6100.15C34309.7,6891.6 33607.5,7374.38 32998.2,7177.58C32900.7,7146.1 32811.5,7099.14 32731.4,7039.2C32802.1,6984.37 32869.6,6923.5 32933.6,6857.14C32977,6885.75 33025.9,6909.49 33079.2,6926.71C33332.4,7008.5 33590.5,6912.55 33655.1,6712.57C33719.6,6512.59 33449.5,6646.16 33196.2,6564.37C33188.9,6562.01 33181.7,6559.51 33174.6,6556.86C33452.1,6141.75 33620.1,5599.98 33620.1,5007.64C33620.1,4751.01 33588.6,4503.87 33530.2,4272.41Z" style="fill:rgb(255,138,77);"/>
                            </g>
                            <g transform="matrix(0.495151,0,0,0.350143,-13255.7,-369.828)">
                                <path d="M31799.4,3376.96C32588.9,3376.96 33229.9,4209.57 33229.9,5235.1C33229.9,6260.64 32588.9,7093.25 31799.4,7093.25C31009.9,7093.25 30368.9,6260.64 30368.9,5235.1C30368.9,4209.57 31009.9,3376.96 31799.4,3376.96ZM31799.4,6298.68C32127.5,6298.68 32393.9,6039.55 32393.9,6298.68C32393.9,6557.81 32127.5,6768.18 31799.4,6768.18C31471.3,6768.18 31204.9,6557.81 31204.9,6298.68C31204.9,6039.55 31471.3,6298.68 31799.4,6298.68Z" style="fill:rgb(255,138,77);"/>
                            </g>
                            <g transform="matrix(0.495151,0,0,0.350143,-13255.7,-369.828)">
                                <path d="M30885.7,7053.23C30810.6,7106.49 30727.9,7148.6 30638.2,7177.58C30028.9,7374.38 29326.7,6891.6 29071,6100.15C28815.4,5308.69 29102.5,4506.36 29711.8,4309.55C29828.9,4271.74 29949.4,4259.02 30069.5,4268.74C30010.6,4501.26 29978.7,4749.66 29978.7,5007.64C29978.7,5604.91 30149.5,6150.76 30431.1,6567.19C30180.5,6643.05 29917.5,6514.96 29981.3,6712.57C30045.9,6912.55 30303.9,7008.5 30557.2,6926.71C30601.1,6912.51 30642.1,6893.88 30679.4,6871.74C30744.7,6938.09 30813.6,6998.78 30885.7,7053.23Z" style="fill:rgb(255,138,77);"/>
                            </g>
                            <g transform="matrix(0.495151,0,0,0.350143,-13255.7,-369.828)">
                                <path d="M28715.7,5864.99C28731,5929.6 28749,5994.35 28769.9,6059.05C28879.4,6398.12 29053.4,6692.69 29265.5,6924.73C29243.4,6946.15 29218,6967.44 29187.9,6983.61C29067,7048.73 28917.4,7006.09 28968.8,7101.6C29020.2,7197.1 29160.2,7221.77 29281.1,7156.65C29329.9,7130.4 29368.2,7093.53 29393.1,7052.61C29427.9,7084.51 29463.5,7114.84 29499.8,7143.54C29458.5,7198.09 29407,7243.44 29345.6,7276.46C29054.6,7433.15 28653.2,7253.48 28449.6,6875.5C28246.1,6497.52 28317.1,6063.44 28608.1,5906.75C28642.6,5888.19 28678.6,5874.34 28715.7,5864.99Z" style="fill:rgb(255,138,77);"/>
                            </g>
                        </g>
                    </g>
                </g>
            </g>
        </g>
        <g id="Horizontal">
        </g>
    </g>
</svg>
